<svg version="1.2" xmlns="http://www.w3.org/2000/svg" viewBox="0 0 180 180" width="180" height="180">
	<style>
		.s0 { fill: #ff5b5b } 
		.s1 { fill: #3c0808 } 
	</style>
	<path id="Form 1" fill-rule="evenodd" class="s0" d="m17 0h146c9.39 0 17 7.61 17 17v146c0 9.39-7.61 17-17 17h-146c-9.39 0-17-7.61-17-17v-146c0-9.39 7.61-17 17-17z"/>
	<path id="Food Chat" fill-rule="evenodd" class="s1" d="m44.87 79h-6.42v-33.07h22.21v5.64h-15.79v8.52h13.14v5.22h-13.14zm29.24 0.46q-2.98 0-5.35-0.97-2.38-1.03-4.06-2.8-1.63-1.77-2.51-4.05-0.89-2.28-0.89-4.8 0-2.56 0.89-4.84 0.88-2.28 2.51-4.05 1.68-1.77 4.06-2.75 2.37-1.02 5.35-1.02 2.98 0 5.31 1.02 2.38 0.98 4.05 2.75 1.68 1.77 2.52 4.05 0.88 2.28 0.88 4.84 0 2.52-0.88 4.8-0.84 2.28-2.52 4.05-1.63 1.77-4 2.8-2.38 0.97-5.36 0.97zm-6.38-12.62q0 2.15 0.84 3.82 0.84 1.63 2.28 2.56 1.44 0.93 3.26 0.93 1.77 0 3.21-0.93 1.45-0.97 2.29-2.6 0.88-1.68 0.88-3.82 0-2.1-0.88-3.78-0.84-1.67-2.29-2.6-1.44-0.94-3.21-0.94-1.82 0-3.26 0.98-1.44 0.93-2.28 2.61-0.84 1.63-0.84 3.77zm34.38 12.62q-2.98 0-5.35-0.97-2.38-1.03-4.06-2.8-1.63-1.77-2.51-4.05-0.89-2.28-0.89-4.8 0-2.56 0.89-4.84 0.88-2.28 2.51-4.05 1.68-1.77 4.06-2.75 2.37-1.02 5.35-1.02 2.98 0 5.31 1.02 2.38 0.98 4.05 2.75 1.68 1.77 2.52 4.05 0.88 2.28 0.88 4.84 0 2.52-0.88 4.8-0.84 2.28-2.52 4.05-1.63 1.77-4 2.8-2.38 0.97-5.36 0.97zm-6.38-12.62q0 2.15 0.84 3.82 0.84 1.63 2.28 2.56 1.44 0.93 3.26 0.93 1.77 0 3.21-0.93 1.45-0.97 2.29-2.6 0.88-1.68 0.88-3.82 0-2.1-0.88-3.78-0.84-1.67-2.29-2.6-1.44-0.94-3.21-0.94-1.82 0-3.26 0.98-1.44 0.93-2.28 2.61-0.84 1.63-0.84 3.77zm21.62-0.04q0-3.54 1.4-6.38 1.39-2.89 3.86-4.57 2.47-1.67 5.64-1.67 2.7 0 4.84 1.35 2.19 1.3 3.4 3.35v-13.88h6.24v27.01q0 0.98 0.33 1.4 0.32 0.42 1.12 0.51v5.08q-1.63 0.32-2.66 0.32-1.68 0-2.79-0.83-1.07-0.84-1.21-2.19l-0.1-1.54q-1.35 2.28-3.68 3.49-2.28 1.21-4.79 1.21-2.52 0-4.66-0.97-2.1-0.98-3.68-2.71-1.54-1.72-2.42-4-0.84-2.33-0.84-4.98zm19.14 3.26v-5.83q-0.46-1.35-1.49-2.42-1.02-1.07-2.28-1.67-1.26-0.66-2.52-0.66-1.44 0-2.6 0.61-1.17 0.61-2.05 1.63-0.84 1.02-1.31 2.38-0.42 1.35-0.42 2.84 0 1.49 0.47 2.84 0.51 1.3 1.44 2.28 0.93 0.98 2.15 1.54 1.25 0.55 2.7 0.55 0.88 0 1.77-0.27 0.93-0.33 1.72-0.84 0.84-0.56 1.44-1.31 0.66-0.79 0.98-1.67zm-100.05 48.17q0-3.02 1.07-5.91 1.12-2.94 3.22-5.31 2.09-2.42 5.12-3.82 3.03-1.44 6.89-1.44 4.57 0 7.87 2 3.36 2 4.99 5.21l-4.94 3.4q-0.84-1.86-2.19-2.93-1.35-1.12-2.89-1.54-1.53-0.46-3.02-0.46-2.42 0-4.24 0.98-1.77 0.97-2.98 2.56-1.21 1.58-1.82 3.54-0.56 1.95-0.56 3.91 0 2.19 0.7 4.24 0.7 2 1.96 3.58 1.3 1.54 3.07 2.47 1.82 0.89 3.96 0.89 1.54 0 3.12-0.52 1.58-0.51 2.93-1.63 1.36-1.11 2.1-2.88l5.26 3.02q-0.97 2.47-3.21 4.19-2.19 1.73-4.94 2.61-2.74 0.89-5.45 0.89-3.54 0-6.47-1.45-2.93-1.49-5.08-3.91-2.09-2.47-3.3-5.49-1.17-3.08-1.17-6.2zm56.08 1.54v15.23h-6.24v-13.69q0-2.84-1.12-4.24-1.07-1.4-2.98-1.4-1.12 0-2.37 0.65-1.26 0.65-2.28 1.82-0.98 1.12-1.45 2.61v14.25h-6.24v-34h6.24v14.11q1.35-2.33 3.68-3.63 2.33-1.3 5.08-1.3 2.37 0 3.86 0.83 1.49 0.8 2.33 2.19 0.84 1.35 1.17 3.08 0.32 1.67 0.32 3.49zm3.64 8.01q0-2.38 1.31-4.15 1.35-1.81 3.72-2.79 2.38-0.98 5.45-0.98 1.54 0 3.12 0.24 1.59 0.23 2.75 0.74v-1.3q0-2.33-1.4-3.59-1.35-1.26-4.05-1.26-2 0-3.82 0.7-1.81 0.7-3.82 2.05l-2-4.1q2.42-1.58 4.94-2.37 2.56-0.79 5.35-0.79 5.22 0 8.11 2.6 2.93 2.61 2.93 7.45v7.78q0 0.98 0.33 1.4 0.37 0.42 1.16 0.51v5.08q-0.84 0.14-1.54 0.23-0.65 0.09-1.11 0.09-1.87 0-2.84-0.83-0.94-0.84-1.17-2.05l-0.14-1.26q-1.58 2.05-3.96 3.17-2.37 1.11-4.84 1.11-2.42 0-4.38-0.97-1.91-1.03-3.02-2.75-1.08-1.77-1.08-3.96zm15.19 1.26q0.51-0.56 0.83-1.12 0.33-0.56 0.33-1.03v-2.46q-1.12-0.47-2.42-0.7-1.3-0.28-2.47-0.28-2.42 0-4 1.07-1.54 1.02-1.54 2.75 0 0.93 0.51 1.77 0.51 0.84 1.49 1.35 0.98 0.51 2.33 0.51 1.4 0 2.75-0.51 1.35-0.56 2.19-1.35zm25.86-0.24l1.25 4.94q-0.79 0.33-1.91 0.75-1.11 0.41-2.42 0.69-1.25 0.24-2.56 0.24-1.72 0-3.17-0.61-1.44-0.6-2.32-1.91-0.84-1.35-0.84-3.49v-14.02h-3.22v-4.8h3.22v-7.91h6.24v7.91h5.12v4.8h-5.12v11.92q0.05 1.26 0.7 1.82 0.65 0.56 1.63 0.56 0.98 0 1.91-0.33 0.93-0.32 1.49-0.56z"/>
</svg>